<svg width="18" height="21" viewBox="0 0 18 21" fill="none" xmlns="http://www.w3.org/2000/svg">
<path d="M14.6122 19.6083C14.0571 20.1287 13.4847 20.3888 12.8949 20.3888C12.3398 20.3542 11.7674 20.2154 11.1777 19.9725C10.5879 19.7297 9.99812 19.6083 9.40836 19.6083C8.81859 19.5736 8.21148 19.695 7.58702 19.9725C6.7891 20.3195 6.12995 20.4582 5.60957 20.3888C5.12388 20.2848 4.65554 20.0246 4.20454 19.6083C3.09439 18.4634 2.24444 17.2666 1.65467 16.0176C1.0649 14.734 0.717984 13.4678 0.613907 12.2189C0.509831 10.9699 0.631253 9.8251 0.978174 8.78433C1.3251 7.74357 1.89752 6.91096 2.69543 6.2865C3.49335 5.62735 4.49942 5.26308 5.71365 5.1937C6.47687 5.22839 7.11868 5.38451 7.63906 5.66204C8.19413 5.90489 8.69717 6.04366 9.14817 6.07835C9.80732 5.93958 10.4491 5.74877 11.0736 5.50593C11.7327 5.22839 12.4092 5.10697 13.1031 5.14166C14.7683 5.28043 16.0172 5.93958 16.8498 7.11911C16.0172 7.63949 15.4101 8.2813 15.0285 9.04452C14.6816 9.80775 14.5428 10.5883 14.6122 11.3862C14.7162 12.1842 15.0111 12.9127 15.4968 13.5718C15.9825 14.231 16.6243 14.734 17.4222 15.081C17.11 15.9136 16.7284 16.7288 16.2774 17.5267C15.8264 18.29 15.2713 18.9838 14.6122 19.6083ZM9.04409 5.14166C8.97471 4.30905 9.13082 3.54582 9.51243 2.85198C9.89405 2.15814 10.3971 1.60307 11.0215 1.18676C11.6807 0.735764 12.3919 0.475573 13.1551 0.406189C13.2592 1.13472 13.1725 1.79387 12.8949 2.38364C12.6174 2.9734 12.2531 3.49379 11.8021 3.94478C11.3511 4.36109 10.8654 4.69066 10.345 4.93351C9.85935 5.14166 9.4257 5.21105 9.04409 5.14166Z" fill="#218A3F"/>
</svg>
