<svg width="21" height="21" viewBox="0 0 21 21" fill="none" xmlns="http://www.w3.org/2000/svg">
<path fill-rule="evenodd" clip-rule="evenodd" d="M4.6226 10.6242C4.6226 9.97461 4.73048 9.35188 4.92302 8.76779L1.55279 6.19415C0.895949 7.52779 0.525879 9.03052 0.525879 10.6242C0.525879 12.2164 0.895494 13.7182 1.55142 15.051L4.91984 12.4723C4.72911 11.891 4.6226 11.2705 4.6226 10.6242Z" fill="#218A3F"/>
<path fill-rule="evenodd" clip-rule="evenodd" d="M10.54 4.71505C11.9511 4.71505 13.2257 5.21505 14.2271 6.03324L17.1403 3.12415C15.3651 1.57869 13.0891 0.624146 10.54 0.624146C6.5826 0.624146 3.18141 2.88733 1.55273 6.19415L4.92297 8.76778C5.69953 6.41051 7.91312 4.71505 10.54 4.71505Z" fill="#218A3F"/>
<path fill-rule="evenodd" clip-rule="evenodd" d="M10.54 16.5333C7.91312 16.5333 5.69953 14.8379 4.92297 12.4806L1.55273 15.0538C3.18141 18.361 6.5826 20.6242 10.54 20.6242C12.9826 20.6242 15.3145 19.757 17.0647 18.132L13.8657 15.6588C12.963 16.2274 11.8264 16.5333 10.54 16.5333Z" fill="#218A3F"/>
<path fill-rule="evenodd" clip-rule="evenodd" d="M20.0991 10.6242C20.0991 10.0332 20.008 9.39688 19.8715 8.80597H10.54V12.6696H15.9113C15.6427 13.9869 14.9117 14.9996 13.8657 15.6587L17.0647 18.1319C18.9033 16.4255 20.0991 13.8837 20.0991 10.6242Z" fill="#218A3F"/>
</svg>
