<svg width="133" height="133" viewBox="0 0 133 133" fill="none" xmlns="http://www.w3.org/2000/svg">
<circle cx="66.4146" cy="66.7308" r="66" fill="#43FF78"/>
<path opacity="0.7" d="M57.1012 36.8325L66.5062 22.786L91.912 60.0397V87.5219L57.1012 36.8325Z" fill="white"/>
<path opacity="0.7" d="M41.1284 59.9788L50.1131 47.0409L79.0439 88.1908H41.1284V59.9788Z" fill="white"/>
<path d="M92.5165 60.0813V87.5861" stroke="black" stroke-width="3.30371" stroke-linecap="round" stroke-linejoin="round"/>
<path d="M41.5283 59.649V88.5971H78.7529" stroke="black" stroke-width="3.30371" stroke-linecap="round" stroke-linejoin="round"/>
<path d="M52.7129 29.714L94.1818 90.9454" stroke="black" stroke-width="2.83175" stroke-linecap="round"/>
<path d="M45.8048 39.5826L80.9067 90.93" stroke="black" stroke-width="2.83175" stroke-linecap="round"/>
<path d="M63.5685 16.8848L103.372 76.0967" stroke="black" stroke-width="3.30371" stroke-linecap="round"/>
<path d="M68.4496 16.2891C68.9603 15.5332 69.9871 15.3343 70.7431 15.8449C71.4991 16.3555 71.698 17.3824 71.1873 18.1383L68.4496 16.2891ZM71.1873 18.1383L58.5728 36.8137L55.8352 34.9645L68.4496 16.2891L71.1873 18.1383Z" fill="black"/>
<path d="M31.3858 77.3471C30.8768 78.1042 29.8505 78.3054 29.0933 77.7965C28.3362 77.2876 28.135 76.2612 28.6439 75.5041L31.3858 77.3471ZM51.5249 47.3855L31.3858 77.3471L28.6439 75.5041L48.783 45.5425L51.5249 47.3855Z" fill="black"/>
<path d="M31.3356 111.394C30.1072 111.394 29.1177 111.032 28.367 110.309C27.63 109.572 27.2615 108.589 27.2615 107.361V100.727C27.2615 99.5127 27.63 98.5436 28.367 97.8203C29.1177 97.0969 30.1072 96.7352 31.3356 96.7352C32.5776 96.7352 33.5671 97.0969 34.3041 97.8203C35.0548 98.5436 35.4301 99.5127 35.4301 100.727V100.953C35.4301 101.021 35.4028 101.082 35.3482 101.137C35.3073 101.178 35.2527 101.198 35.1844 101.198L32.7891 101.301C32.6253 101.301 32.5435 101.226 32.5435 101.075V100.543C32.5435 100.147 32.4343 99.8266 32.2159 99.5809C31.9975 99.3352 31.7041 99.2124 31.3356 99.2124C30.9807 99.2124 30.6941 99.3352 30.4757 99.5809C30.2573 99.8266 30.1481 100.147 30.1481 100.543V107.606C30.1481 108.002 30.2573 108.323 30.4757 108.568C30.6941 108.8 30.9807 108.916 31.3356 108.916C31.7041 108.916 31.9975 108.8 32.2159 108.568C32.4343 108.323 32.5435 108.002 32.5435 107.606V107.053C32.5435 106.985 32.5639 106.931 32.6049 106.89C32.6595 106.835 32.7209 106.808 32.7891 106.808L35.1844 106.91C35.2527 106.91 35.3073 106.937 35.3482 106.992C35.4028 107.033 35.4301 107.088 35.4301 107.156V107.361C35.4301 108.589 35.0548 109.572 34.3041 110.309C33.5534 111.032 32.5639 111.394 31.3356 111.394ZM42.3724 111.23C42.2086 111.23 42.1199 111.155 42.1063 111.005L41.7787 109.039C41.7787 108.971 41.7378 108.937 41.6559 108.937H39.0558C38.9739 108.937 38.933 108.971 38.933 109.039L38.6054 111.005C38.5918 111.155 38.5031 111.23 38.3393 111.23H35.944C35.7666 111.23 35.6983 111.141 35.7393 110.964L38.7487 97.1242C38.776 96.9741 38.8648 96.899 39.0149 96.899H41.7787C41.9288 96.899 42.0176 96.9741 42.0448 97.1242L45.0339 110.964L45.0543 111.046C45.0543 111.168 44.9793 111.23 44.8291 111.23H42.3724ZM39.3425 106.603C39.3425 106.671 39.3698 106.705 39.4243 106.705H41.2669C41.3351 106.705 41.3624 106.671 41.3488 106.603L40.3866 101.014C40.3729 100.973 40.3524 100.953 40.3251 100.953C40.2978 100.953 40.2774 100.973 40.2637 101.014L39.3425 106.603ZM48.9857 111.394C48.1941 111.394 47.498 111.237 46.8975 110.923C46.297 110.609 45.8329 110.172 45.5054 109.613C45.1778 109.039 45.014 108.384 45.014 107.647V107.053C45.014 106.985 45.0345 106.931 45.0754 106.89C45.13 106.835 45.1915 106.808 45.2597 106.808H47.6141C47.6823 106.808 47.7369 106.835 47.7778 106.89C47.8324 106.931 47.8597 106.985 47.8597 107.053V107.504C47.8597 107.927 47.9689 108.268 48.1873 108.527C48.4057 108.787 48.6786 108.916 49.0062 108.916C49.3338 108.916 49.6067 108.794 49.8251 108.548C50.0435 108.302 50.1527 107.982 50.1527 107.586C50.1527 107.176 50.0162 106.828 49.7432 106.542C49.4702 106.241 48.938 105.805 48.1463 105.231C47.4639 104.74 46.9112 104.303 46.4881 103.921C46.065 103.539 45.7033 103.068 45.403 102.508C45.1027 101.949 44.9526 101.301 44.9526 100.564C44.9526 99.4035 45.3143 98.4754 46.0377 97.7793C46.761 97.0832 47.7164 96.7352 48.9038 96.7352C50.1049 96.7352 51.0671 97.0969 51.7905 97.8203C52.5275 98.5436 52.896 99.4922 52.896 100.666V101.157C52.896 101.226 52.8687 101.287 52.8141 101.342C52.7732 101.383 52.7186 101.403 52.6503 101.403H50.296C50.2277 101.403 50.1663 101.383 50.1117 101.342C50.0708 101.287 50.0503 101.226 50.0503 101.157V100.605C50.0503 100.181 49.9411 99.8471 49.7227 99.6014C49.518 99.3421 49.245 99.2124 48.9038 99.2124C48.5763 99.2124 48.3101 99.3352 48.1054 99.5809C47.9007 99.8129 47.7983 100.14 47.7983 100.564C47.7983 100.973 47.928 101.335 48.1873 101.649C48.4466 101.963 48.9584 102.399 49.7227 102.959C50.5689 103.587 51.2036 104.099 51.6267 104.494C52.0634 104.877 52.3978 105.306 52.6299 105.784C52.8755 106.248 52.9984 106.808 52.9984 107.463C52.9984 108.664 52.6299 109.619 51.8928 110.329C51.1558 111.039 50.1868 111.394 48.9857 111.394ZM60.0069 111.23C59.8431 111.23 59.7544 111.155 59.7408 111.005L59.4132 109.039C59.4132 108.971 59.3722 108.937 59.2904 108.937H56.6903C56.6084 108.937 56.5675 108.971 56.5675 109.039L56.2399 111.005C56.2263 111.155 56.1376 111.23 55.9738 111.23H53.5785C53.401 111.23 53.3328 111.141 53.3738 110.964L56.3832 97.1242C56.4105 96.9741 56.4992 96.899 56.6494 96.899H59.4132C59.5633 96.899 59.652 96.9741 59.6793 97.1242L62.6683 110.964L62.6888 111.046C62.6888 111.168 62.6138 111.23 62.4636 111.23H60.0069ZM56.9769 106.603C56.9769 106.671 57.0042 106.705 57.0588 106.705H58.9014C58.9696 106.705 58.9969 106.671 58.9833 106.603L58.021 101.014C58.0074 100.973 57.9869 100.953 57.9596 100.953C57.9323 100.953 57.9119 100.973 57.8982 101.014L56.9769 106.603ZM63.7006 111.23C63.6324 111.23 63.571 111.209 63.5164 111.168C63.4754 111.114 63.4549 111.052 63.4549 110.984V97.1447C63.4549 97.0764 63.4754 97.0218 63.5164 96.9809C63.571 96.9263 63.6324 96.899 63.7006 96.899H66.0959C66.1642 96.899 66.2188 96.9263 66.2597 96.9809C66.3143 97.0218 66.3416 97.0764 66.3416 97.1447V108.65C66.3416 108.719 66.3757 108.753 66.444 108.753H70.7432C70.8115 108.753 70.8661 108.78 70.907 108.835C70.9616 108.876 70.9889 108.93 70.9889 108.998V110.984C70.9889 111.052 70.9616 111.114 70.907 111.168C70.8661 111.209 70.8115 111.23 70.7432 111.23H63.7006ZM72.008 111.23C71.9398 111.23 71.8784 111.209 71.8238 111.168C71.7828 111.114 71.7624 111.052 71.7624 110.984V97.1447C71.7624 97.0764 71.7828 97.0218 71.8238 96.9809C71.8784 96.9263 71.9398 96.899 72.008 96.899H74.4033C74.4716 96.899 74.5262 96.9263 74.5671 96.9809C74.6217 97.0218 74.649 97.0764 74.649 97.1447V110.984C74.649 111.052 74.6217 111.114 74.5671 111.168C74.5262 111.209 74.4716 111.23 74.4033 111.23H72.008ZM81.9264 97.1447C81.9264 97.0764 81.9469 97.0218 81.9878 96.9809C82.0424 96.9263 82.1038 96.899 82.1721 96.899H84.5469C84.6152 96.899 84.6697 96.9263 84.7107 96.9809C84.7653 97.0218 84.7926 97.0764 84.7926 97.1447V110.984C84.7926 111.052 84.7653 111.114 84.7107 111.168C84.6697 111.209 84.6152 111.23 84.5469 111.23H81.8445C81.708 111.23 81.6193 111.162 81.5784 111.025L79.0398 103.102C79.0261 103.061 78.9988 103.048 78.9579 103.061C78.9306 103.061 78.9169 103.082 78.9169 103.123L78.9374 110.984C78.9374 111.052 78.9101 111.114 78.8555 111.168C78.8146 111.209 78.76 111.23 78.6917 111.23H76.3169C76.2487 111.23 76.1872 111.209 76.1326 111.168C76.0917 111.114 76.0712 111.052 76.0712 110.984V97.1447C76.0712 97.0764 76.0917 97.0218 76.1326 96.9809C76.1872 96.9263 76.2487 96.899 76.3169 96.899H78.9988C79.1353 96.899 79.224 96.9672 79.265 97.1037L81.824 105.027C81.8377 105.068 81.8582 105.088 81.8855 105.088C81.9264 105.074 81.9469 105.047 81.9469 105.006L81.9264 97.1447ZM86.4237 111.23C86.3554 111.23 86.294 111.209 86.2394 111.168C86.1985 111.114 86.178 111.052 86.178 110.984V97.1447C86.178 97.0764 86.1985 97.0218 86.2394 96.9809C86.294 96.9263 86.3554 96.899 86.4237 96.899H90.1292C91.3712 96.899 92.3676 97.2607 93.1182 97.984C93.8689 98.7074 94.2442 99.6696 94.2442 100.871V107.258C94.2442 108.459 93.8689 109.421 93.1182 110.145C92.3676 110.868 91.3712 111.23 90.1292 111.23H86.4237ZM89.0647 108.65C89.0647 108.719 89.0988 108.753 89.167 108.753L90.0883 108.732C90.4568 108.719 90.7571 108.562 90.9891 108.261C91.2211 107.961 91.3439 107.565 91.3576 107.074V101.055C91.3576 100.536 91.2416 100.127 91.0096 99.8266C90.7775 99.5263 90.4636 99.3762 90.0678 99.3762H89.167C89.0988 99.3762 89.0647 99.4103 89.0647 99.4785V108.65ZM101.124 111.23C100.96 111.23 100.872 111.155 100.858 111.005L100.53 109.039C100.53 108.971 100.49 108.937 100.408 108.937H97.8076C97.7257 108.937 97.6848 108.971 97.6848 109.039L97.3572 111.005C97.3436 111.155 97.2548 111.23 97.0911 111.23H94.6958C94.5183 111.23 94.4501 111.141 94.491 110.964L97.5005 97.1242C97.5278 96.9741 97.6165 96.899 97.7667 96.899H100.53C100.681 96.899 100.769 96.9741 100.797 97.1242L103.786 110.964L103.806 111.046C103.806 111.168 103.731 111.23 103.581 111.23H101.124ZM98.0942 106.603C98.0942 106.671 98.1215 106.705 98.1761 106.705H100.019C100.087 106.705 100.114 106.671 100.101 106.603L99.1383 101.014C99.1247 100.973 99.1042 100.953 99.0769 100.953C99.0496 100.953 99.0291 100.973 99.0155 101.014L98.0942 106.603Z" fill="black"/>
</svg>
